<?xml version="1.0" standalone="no"?>
<!DOCTYPE svg PUBLIC "-//W3C//DTD SVG 20010904//EN"
 "http://www.w3.org/TR/2001/REC-SVG-20010904/DTD/svg10.dtd">
<svg version="1.0" xmlns="http://www.w3.org/2000/svg"
 width="400.000000pt" height="400.000000pt" viewBox="0 0 400.000000 400.000000"
 preserveAspectRatio="xMidYMid meet">

<g transform="translate(0.000000,400.000000) scale(0.100000,-0.100000)"
fill="#000000" stroke="none">
<path d="M1457 3766 c-59 -22 -97 -57 -127 -121 -65 -134 40 -295 193 -296
131 -2 222 87 221 216 -1 68 -17 105 -66 152 -59 57 -145 76 -221 49z"/>
<path d="M1827 3742 c-14 -16 -17 -44 -17 -183 0 -115 4 -169 12 -177 15 -15
340 -17 369 -2 18 10 19 23 19 180 0 140 -3 171 -16 184 -13 13 -44 16 -183
16 -150 0 -170 -2 -184 -18z m366 -317 c-3 -9 -8 -14 -10 -11 -3 3 -2 9 2 15
9 16 15 13 8 -4z"/>
<path d="M2306 3741 c-14 -16 -17 -41 -16 -185 2 -151 3 -167 20 -176 10 -6
95 -10 188 -10 133 0 172 3 181 14 19 22 14 342 -6 361 -12 12 -47 15 -182 15
-151 0 -170 -2 -185 -19z m7 -16 c-3 -9 -8 -14 -10 -11 -3 3 -2 9 2 15 9 16
15 13 8 -4z"/>
<path d="M1342 3268 c-6 -8 -11 -81 -12 -177 -1 -141 2 -166 16 -182 15 -17
34 -19 184 -19 149 0 169 2 183 18 14 16 17 44 17 179 0 142 -2 162 -18 176
-16 14 -44 17 -189 17 -124 0 -173 -3 -181 -12z"/>
<path d="M1820 3261 c-6 -11 -10 -88 -10 -180 0 -132 3 -162 16 -175 13 -13
45 -16 189 -16 164 0 175 1 185 20 14 26 12 340 -2 358 -8 9 -58 12 -189 12
-166 0 -179 -1 -189 -19z m353 -326 c-7 -21 -12 -19 -10 4 0 11 5 18 9 15 4
-3 5 -11 1 -19z m27 -9 c0 -3 -4 -8 -10 -11 -5 -3 -10 -1 -10 4 0 6 5 11 10
11 6 0 10 -2 10 -4z"/>
<path d="M1342 2787 c-7 -8 -11 -76 -11 -179 -1 -134 2 -168 14 -178 10 -8 65
-12 177 -13 171 -1 200 1 192 14 -2 4 0 10 6 14 13 8 13 310 0 336 -10 18 -23
19 -189 19 -134 0 -181 -3 -189 -13z m353 -336 c3 -5 2 -12 -3 -15 -5 -3 -9 1
-9 9 0 17 3 19 12 6z"/>
<path d="M1822 2788 c-8 -8 -12 -62 -12 -179 0 -141 2 -169 16 -180 12 -9 62
-14 175 -17 135 -4 163 -2 184 12 l25 16 0 168 c0 117 -4 172 -12 180 -17 17
-359 17 -376 0z"/>
<path d="M2300 2781 c-15 -30 -13 -314 3 -305 9 6 9 5 0 -7 -10 -13 -10 -19 0
-34 12 -16 32 -18 183 -19 141 -1 168 1 166 13 -2 11 0 12 11 2 12 -9 16 -8
21 5 8 20 7 330 -1 350 -4 11 -43 14 -189 14 -171 0 -184 -1 -194 -19z"/>
<path d="M1346 2315 c-22 -22 -24 -360 -2 -352 10 4 13 1 9 -9 -4 -12 21 -14
165 -14 170 0 207 4 196 21 -3 5 0 9 5 9 7 0 11 55 11 164 0 136 -3 167 -16
180 -22 23 -345 24 -368 1z"/>
<path d="M1826 2314 c-13 -13 -16 -44 -16 -183 0 -116 4 -171 12 -179 17 -17
359 -17 376 0 8 8 12 63 12 179 0 139 -3 170 -16 183 -13 13 -44 16 -184 16
-140 0 -171 -3 -184 -16z"/>
<path d="M1243 1645 c-34 -14 -63 -59 -63 -97 0 -42 36 -85 102 -120 51 -27
64 -38 66 -60 3 -22 -2 -30 -23 -38 -24 -9 -81 -2 -128 16 -14 5 -17 0 -17
-30 0 -44 23 -56 105 -56 100 0 145 34 145 110 0 57 -18 79 -99 120 -63 31
-77 50 -60 82 9 17 18 20 57 15 26 -2 54 -8 63 -11 12 -5 19 1 28 25 6 18 11
33 11 34 0 2 -20 8 -44 14 -59 14 -104 13 -143 -4z"/>
<path d="M3185 1646 c-79 -29 -123 -121 -109 -228 8 -58 36 -103 84 -136 31
-21 44 -23 111 -20 64 2 81 7 111 30 51 39 72 99 66 188 -6 78 -31 125 -81
155 -39 23 -132 29 -182 11z m146 -85 c26 -27 29 -36 29 -96 0 -38 -6 -78 -15
-94 -27 -54 -112 -62 -155 -16 -30 32 -38 126 -17 178 27 63 108 78 158 28z"/>
<path d="M560 1455 l0 -195 40 0 40 0 0 195 0 195 -40 0 -40 0 0 -195z"/>
<path d="M750 1455 l0 -195 35 0 34 0 3 149 3 149 85 -147 85 -146 53 -3 52
-3 0 195 0 196 -35 0 -34 0 -3 -142 -3 -142 -81 140 -82 139 -56 3 -56 3 0
-196z"/>
<path d="M1470 1620 c0 -30 1 -30 55 -30 l55 0 0 -165 0 -165 40 0 40 0 2 163
3 162 53 3 c50 3 52 4 52 33 l0 29 -150 0 -150 0 0 -30z"/>
<path d="M1840 1455 l0 -195 40 0 40 0 0 195 0 195 -40 0 -40 0 0 -195z"/>
<path d="M1980 1620 c0 -30 1 -30 55 -30 l55 0 0 -165 0 -165 40 0 40 0 2 163
3 162 53 3 c50 3 52 4 52 33 l0 29 -150 0 -150 0 0 -30z"/>
<path d="M2350 1503 c0 -166 10 -197 71 -229 45 -23 158 -16 196 12 47 35 53
57 53 217 l0 147 -40 0 -40 0 0 -139 c0 -165 -9 -186 -79 -186 -70 0 -76 14
-79 180 l-3 145 -40 0 -39 0 0 -147z"/>
<path d="M2730 1620 c0 -30 1 -30 55 -30 l55 0 0 -165 0 -165 40 0 40 0 2 163
3 162 53 3 c50 3 52 4 52 33 l0 29 -150 0 -150 0 0 -30z"/>
<path d="M840 985 l0 -195 40 0 40 0 0 80 0 80 70 0 70 0 0 30 c0 29 0 29 -67
32 l-68 3 -3 53 -3 52 75 0 76 0 0 30 0 30 -115 0 -115 0 0 -195z"/>
<path d="M1150 985 l0 -195 115 0 115 0 0 35 0 35 -75 0 -75 0 0 50 0 50 70 0
70 0 0 35 0 35 -71 0 -70 0 3 43 3 42 73 3 72 3 0 29 0 30 -115 0 -115 0 0
-195z"/>
<path d="M1460 985 l0 -197 98 4 c80 3 105 8 142 28 115 63 123 256 13 330
-32 22 -49 25 -145 28 l-108 4 0 -197z m196 116 c23 -14 34 -31 43 -65 26
-104 -23 -176 -119 -176 l-40 0 0 130 0 130 43 0 c24 0 55 -8 73 -19z"/>
<path d="M1870 985 l0 -195 115 0 115 0 0 35 0 35 -75 0 -75 0 0 50 0 50 70 0
70 0 0 35 0 35 -71 0 -70 0 3 43 3 42 73 3 72 3 0 29 0 30 -115 0 -115 0 0
-195z"/>
<path d="M2190 985 l0 -195 40 0 40 0 0 75 0 75 28 0 c23 0 34 -11 72 -75 l45
-75 94 2 94 3 11 40 12 40 76 3 76 3 14 -43 c14 -41 17 -43 56 -46 23 -2 42 0
42 5 0 4 -30 92 -67 196 l-67 187 -52 0 -53 0 -19 -52 c-11 -29 -41 -115 -68
-190 -27 -76 -52 -138 -56 -138 -9 0 -108 145 -108 158 0 6 11 17 24 25 36 24
50 74 34 123 -19 57 -59 74 -175 74 l-93 0 0 -195z m168 119 c47 -33 15 -94
-50 -94 l-38 0 0 48 c0 27 3 52 7 55 12 12 58 7 81 -9z m349 -152 c-27 -2 -51
-2 -53 0 -1 2 9 42 24 88 l26 85 26 -85 26 -85 -49 -3z"/>
<path d="M2950 985 l0 -195 125 0 125 0 0 35 0 35 -85 0 -85 0 0 160 0 160
-40 0 -40 0 0 -195z"/>
<path d="M1120 470 c0 -136 2 -160 15 -160 13 0 15 24 15 160 0 136 -2 160
-15 160 -13 0 -15 -24 -15 -160z"/>
<path d="M1882 607 c-13 -15 1 -42 17 -33 13 9 15 33 2 40 -5 3 -13 0 -19 -7z"/>
<path d="M907 603 c-4 -3 -7 -71 -7 -150 0 -136 1 -143 20 -143 18 0 20 7 20
65 l0 65 60 0 c47 0 60 3 60 15 0 12 -13 15 -60 15 l-60 0 0 55 0 55 65 0 c51
0 65 3 65 15 0 12 -15 15 -78 15 -43 0 -82 -3 -85 -7z"/>
<path d="M1548 526 c-16 -9 -30 -11 -33 -5 -18 28 -25 -2 -25 -101 0 -91 3
-110 15 -110 12 0 15 15 15 78 0 90 15 122 59 122 44 0 51 -16 51 -112 0 -69
3 -88 14 -88 11 0 15 21 17 86 4 92 17 114 65 114 38 0 54 -36 54 -122 0 -63
3 -78 15 -78 12 0 15 16 15 83 0 96 -13 128 -57 140 -26 8 -39 5 -67 -11 -20
-12 -36 -18 -36 -13 0 9 -45 31 -63 31 -7 0 -24 -7 -39 -14z"/>
<path d="M2053 525 c-19 -8 -35 -10 -38 -4 -18 28 -25 -2 -25 -101 0 -91 3
-110 15 -110 12 0 15 16 15 80 0 90 17 120 68 120 45 0 52 -16 52 -112 0 -72
3 -88 15 -88 12 0 15 17 15 93 0 50 -4 97 -8 104 -7 11 -55 33 -70 33 -4 -1
-22 -7 -39 -15z"/>
<path d="M2273 521 c-35 -22 -44 -42 -45 -101 -1 -74 42 -113 119 -108 67 4
70 28 3 25 -44 -2 -55 2 -71 22 -10 13 -19 32 -19 42 0 17 8 19 75 19 l75 0 0
29 c0 67 -78 108 -137 72z m89 -28 c10 -9 18 -24 18 -35 0 -15 -8 -18 -60 -18
-66 0 -77 13 -40 50 24 24 57 26 82 3z"/>
<path d="M2543 525 c-19 -8 -35 -10 -38 -4 -18 28 -25 -2 -25 -101 0 -91 3
-110 15 -110 12 0 15 16 15 80 0 90 17 120 68 120 45 0 52 -16 52 -112 0 -72
3 -88 15 -88 12 0 15 17 15 93 0 50 -4 97 -8 104 -7 11 -55 33 -70 33 -4 -1
-22 -7 -39 -15z"/>
<path d="M2762 530 c-12 -5 -27 -21 -34 -35 -10 -22 -8 -29 11 -49 13 -13 35
-27 49 -31 32 -8 62 -33 62 -52 0 -24 -45 -37 -89 -25 -32 8 -41 7 -41 -3 0
-17 23 -25 74 -25 57 0 88 23 84 63 -3 28 -11 36 -56 58 -69 34 -79 44 -61 65
10 13 24 15 61 11 36 -5 48 -3 48 7 0 8 -14 16 -31 20 -39 8 -48 7 -77 -4z"/>
<path d="M2973 521 c-34 -21 -43 -40 -45 -94 -3 -81 40 -121 123 -115 32 2 45
8 47 20 3 14 -1 15 -31 7 -57 -15 -107 15 -107 65 0 13 14 16 75 16 l75 0 0
33 c0 66 -78 105 -137 68z m89 -28 c10 -9 18 -24 18 -35 0 -15 -8 -18 -60 -18
-65 0 -72 8 -44 48 18 26 60 29 86 5z"/>
<path d="M1230 437 c0 -78 3 -97 18 -110 24 -22 95 -22 113 -1 11 14 13 14 21
0 20 -36 28 -11 28 94 0 91 -3 110 -15 110 -12 0 -15 -14 -15 -67 0 -38 -3
-78 -6 -90 -8 -30 -57 -49 -89 -35 -24 11 -25 16 -25 102 0 73 -3 90 -15 90
-12 0 -15 -17 -15 -93z"/>
<path d="M1880 420 c0 -91 3 -110 15 -110 12 0 15 19 15 110 0 91 -3 110 -15
110 -12 0 -15 -19 -15 -110z"/>
</g>
</svg>
